<?xml version="1.0" encoding="utf-8"?>
<!-- Generator: Adobe Illustrator 25.2.2, SVG Export Plug-In . SVG Version: 6.00 Build 0)  -->
<svg version="1.1" id="Layer_1" xmlns="http://www.w3.org/2000/svg" xmlns:xlink="http://www.w3.org/1999/xlink" x="0px" y="0px"
	 viewBox="0 0 595 514.9" style="enable-background:new 0 0 595 514.9;" xml:space="preserve">
<style type="text/css">
	.st0{clip-path:url(#SVGID_2_);}
	.st1{clip-path:url(#SVGID_4_);fill:#FFFFFF;}
	.st2{clip-path:url(#SVGID_6_);fill:#FFFFFF;}
	.st3{clip-path:url(#SVGID_6_);}
	.st4{fill:#1E4788;}
	.st5{font-family:'SegoeUI';}
	.st6{font-size:12.0056px;}
	.st7{fill:#363636;}
	.st8{font-family:'SegoeUI-Semibold';}
	.st9{font-size:18.0084px;}
	.st10{fill:#4A4A4A;}
	.st11{font-size:15.007px;}
	.st12{clip-path:url(#SVGID_6_);fill:none;stroke:#DBDBDB;stroke-width:0.7503;}
	.st13{clip-path:url(#SVGID_14_);}
	.st14{clip-path:url(#SVGID_16_);}
	.st15{clip-path:url(#SVGID_18_);fill:#FFFFFF;}
	.st16{clip-path:url(#SVGID_18_);fill:#DBDBDB;}
	.st17{clip-path:url(#SVGID_18_);}
	.st18{font-family:'SegoeUI-Bold';}
	.st19{clip-path:url(#SVGID_20_);}
	.st20{clip-path:url(#SVGID_22_);fill:#FFFFFF;}
	.st21{clip-path:url(#SVGID_24_);}
	.st22{fill:#CC0F35;}
	.st23{clip-path:url(#SVGID_26_);}
	.st24{clip-path:url(#SVGID_28_);fill:#FFFFFF;}
	.st25{clip-path:url(#SVGID_30_);}
	.st26{clip-path:url(#SVGID_32_);}
	.st27{clip-path:url(#SVGID_34_);fill:#FFFFFF;}
	.st28{clip-path:url(#SVGID_36_);}
	.st29{clip-path:url(#SVGID_36_);fill:#FFFFFF;}
	.st30{clip-path:url(#SVGID_36_);fill:none;stroke:#DBDBDB;stroke-width:0.7503;}
	.st31{clip-path:url(#SVGID_38_);}
	.st32{clip-path:url(#SVGID_40_);}
	.st33{clip-path:url(#SVGID_42_);}
	.st34{clip-path:url(#SVGID_44_);fill:#FFFFFF;}
	.st35{clip-path:url(#SVGID_46_);}
</style>
<g>
	<defs>
		<rect id="SVGID_1_" x="38" y="8.9" width="520.3" height="506"/>
	</defs>
	<clipPath id="SVGID_2_">
		<use xlink:href="#SVGID_1_"  style="overflow:visible;"/>
	</clipPath>
	<g class="st0">
		<defs>
			<rect id="SVGID_3_" y="-47" width="595.2" height="842.2"/>
		</defs>
		<clipPath id="SVGID_4_">
			<use xlink:href="#SVGID_3_"  style="overflow:visible;"/>
		</clipPath>
		<rect y="-47" class="st1" width="793" height="1122"/>
		<g style="clip-path:url(#SVGID_4_);">
			<text transform="matrix(1 0 0 1 26.3743 -25.0939)" style="font-family:'ArialMT'; font-size:8px;">4/19/2021</text>
		</g>
		<g style="clip-path:url(#SVGID_4_);">
			<text transform="matrix(1 0 0 1 319.6526 -25.0939)" style="font-family:'ArialMT'; font-size:8px;">Home</text>
		</g>
		<g style="clip-path:url(#SVGID_4_);">
			<text transform="matrix(1 0 0 1 26.3743 777.914)" style="font-family:'ArialMT'; font-size:8px;">127.0.0.1:5000/home</text>
		</g>
		<g style="clip-path:url(#SVGID_4_);">
			<text transform="matrix(1 0 0 1 557.3221 777.914)" style="font-family:'ArialMT'; font-size:8px;">1</text>
		</g>
		<g style="clip-path:url(#SVGID_4_);">
			<text transform="matrix(1 0 0 1 561.7595 777.914)" style="font-family:'ArialMT'; font-size:8px;">/</text>
		</g>
		<g style="clip-path:url(#SVGID_4_);">
			<text transform="matrix(1 0 0 1 563.9783 777.914)" style="font-family:'ArialMT'; font-size:8px;">1</text>
		</g>
	</g>
	<g class="st0">
		<defs>
			<rect id="SVGID_5_" x="29" y="-18" width="538" height="784.9"/>
		</defs>
		<clipPath id="SVGID_6_">
			<use xlink:href="#SVGID_5_"  style="overflow:visible;"/>
		</clipPath>
		<rect x="29" y="-18" class="st2" width="538" height="784.9"/>
		<g class="st3">
			<text transform="matrix(1 0 0 1 51.3228 42.77)" class="st4 st5 st6">Home</text>
		</g>
		<g class="st3">
			<defs>
				<rect id="SVGID_7_" x="128" y="1.5" width="75" height="72.8"/>
			</defs>
			<clipPath id="SVGID_8_">
				<use xlink:href="#SVGID_7_"  style="overflow:visible;"/>
			</clipPath>
			<g transform="matrix(1 0 0 1 0 -1.192093e-07)" style="clip-path:url(#SVGID_8_);">
				
					<image style="overflow:visible;" width="820" height="800" xlink:href="D82FF1BA.png"  transform="matrix(9.150592e-02 0 0 9.097978e-02 128.046 1.5007)">
				</image>
			</g>
		</g>
		<g class="st3">
			<defs>
				<rect id="SVGID_9_" x="203.1" width="189.1" height="75.8"/>
			</defs>
			<clipPath id="SVGID_10_">
				<use xlink:href="#SVGID_9_"  style="overflow:visible;"/>
			</clipPath>
			<g style="clip-path:url(#SVGID_10_);">
				
					<image style="overflow:visible;" width="252" height="101" xlink:href="D82FF1BE.jpg"  transform="matrix(0.7503 0 0 0.7503 203.0809 0)">
				</image>
			</g>
		</g>
		<g class="st3">
			<defs>
				<rect id="SVGID_11_" x="392.2" y="1.5" width="75" height="72.8"/>
			</defs>
			<clipPath id="SVGID_12_">
				<use xlink:href="#SVGID_11_"  style="overflow:visible;"/>
			</clipPath>
			<g transform="matrix(1 0 0 1 -3.051758e-05 -1.192093e-07)" style="clip-path:url(#SVGID_12_);">
				
					<image style="overflow:visible;" width="820" height="800" xlink:href="D82FF1BE.png"  transform="matrix(9.150592e-02 0 0 9.097978e-02 392.1688 1.5007)">
				</image>
			</g>
		</g>
		<g class="st3">
			<text transform="matrix(1 0 0 1 511.9785 42.77)" class="st4 st5 st6">About</text>
		</g>
		<g class="st3">
			<text transform="matrix(1 0 0 1 47.0083 147.0684)" class="st7 st8 st9">Viral Whole Genome Nanopor</text>
		</g>
		<g class="st3">
			<text transform="matrix(1 0 0 1 293.2778 147.0684)" class="st7 st8 st9">e Sequencing Analysis</text>
		</g>
		<g class="st3">
			<text transform="matrix(1 0 0 1 47.0083 183.8354)" class="st10 st5 st11">Viral WGS using bioinformatic pipelines from the AR</text>
		</g>
		<g class="st3">
			<text transform="matrix(1 0 0 1 391.7803 183.8354)" class="st10 st5 st11">TIC network</text>
		</g>
		<path class="st2" d="M47.4,239.4v-31.5c0-0.3,0.1-0.7,0.2-1c0.1-0.3,0.3-0.6,0.6-0.9c0.2-0.2,0.5-0.4,0.9-0.6
			c0.3-0.1,0.7-0.2,1-0.2h199.6c0.3,0,0.7,0.1,1,0.2c0.3,0.1,0.6,0.3,0.9,0.6c0.2,0.2,0.4,0.5,0.6,0.9c0.1,0.3,0.2,0.7,0.2,1v31.5
			c0,0.3-0.1,0.7-0.2,1c-0.1,0.3-0.3,0.6-0.6,0.9c-0.2,0.2-0.5,0.4-0.9,0.6c-0.3,0.1-0.7,0.2-1,0.2H50c-0.3,0-0.7-0.1-1-0.2
			c-0.3-0.1-0.6-0.3-0.9-0.6c-0.2-0.2-0.4-0.5-0.6-0.9C47.5,240,47.4,239.7,47.4,239.4z"/>
		<path class="st12" d="M47.4,239.4v-31.5c0-0.3,0.1-0.7,0.2-1c0.1-0.3,0.3-0.6,0.6-0.9c0.2-0.2,0.5-0.4,0.9-0.6
			c0.3-0.1,0.7-0.2,1-0.2h199.6c0.3,0,0.7,0.1,1,0.2c0.3,0.1,0.6,0.3,0.9,0.6c0.2,0.2,0.4,0.5,0.6,0.9c0.1,0.3,0.2,0.7,0.2,1v31.5
			c0,0.3-0.1,0.7-0.2,1c-0.1,0.3-0.3,0.6-0.6,0.9c-0.2,0.2-0.5,0.4-0.9,0.6c-0.3,0.1-0.7,0.2-1,0.2H50c-0.3,0-0.7-0.1-1-0.2
			c-0.3-0.1-0.6-0.3-0.9-0.6c-0.2-0.2-0.4-0.5-0.6-0.9C47.5,240,47.4,239.7,47.4,239.4z"/>
	</g>
	<g class="st0">
		<defs>
			<rect id="SVGID_13_" x="29" y="-18" width="538" height="784.9"/>
		</defs>
		<clipPath id="SVGID_14_">
			<use xlink:href="#SVGID_13_"  style="overflow:visible;"/>
		</clipPath>
		<g class="st13">
			<defs>
				<path id="SVGID_15_" d="M47.8,239.4v-31.5c0-0.6,0.2-1.2,0.7-1.6s1-0.7,1.6-0.7h199.6c0.6,0,1.2,0.2,1.6,0.7s0.7,1,0.7,1.6v31.5
					c0,0.6-0.2,1.2-0.7,1.6c-0.4,0.4-1,0.7-1.6,0.7H50c-0.6,0-1.2-0.2-1.6-0.7C48,240.5,47.8,240,47.8,239.4z"/>
			</defs>
			<clipPath id="SVGID_16_">
				<use xlink:href="#SVGID_15_"  style="overflow:visible;"/>
			</clipPath>
			<g class="st14">
				<text transform="matrix(1 0 0 1 62.7656 229.6064)" class="st7 st5 st11">Set locations of input data</text>
			</g>
		</g>
	</g>
	<g class="st0">
		<defs>
			<rect id="SVGID_17_" x="29" y="-18" width="538" height="784.9"/>
		</defs>
		<clipPath id="SVGID_18_">
			<use xlink:href="#SVGID_17_"  style="overflow:visible;"/>
		</clipPath>
		<rect x="47" y="278.4" class="st15" width="241.6" height="159.8"/>
		<rect x="47" y="437.5" class="st16" width="241.6" height="0.8"/>
		<rect x="47" y="394.7" class="st16" width="0.8" height="43.5"/>
		<rect x="287.9" y="394.7" class="st16" width="0.8" height="43.5"/>
		<rect x="47" y="394.7" class="st16" width="241.6" height="0.8"/>
		<rect x="47" y="351.9" class="st16" width="0.8" height="43.5"/>
		<rect x="287.9" y="351.9" class="st16" width="0.8" height="43.5"/>
		<rect x="47" y="351.9" class="st16" width="241.6" height="0.8"/>
		<rect x="47" y="309.1" class="st16" width="0.8" height="43.5"/>
		<rect x="287.9" y="309.1" class="st16" width="0.8" height="43.5"/>
		<rect x="47" y="278.4" class="st16" width="241.6" height="0.8"/>
		<rect x="47" y="309.1" class="st16" width="241.6" height="0.8"/>
		<rect x="47" y="278.4" class="st16" width="0.8" height="31.5"/>
		<rect x="287.9" y="278.4" class="st16" width="0.8" height="31.5"/>
		<g class="st17">
			<text transform="matrix(1 0 0 1 56.7627 298.6392)" class="st7 st18 st6">Queued Jobs</text>
		</g>
		<g class="st17">
			<text transform="matrix(1 0 0 1 56.7627 329.4028)" class="st4 st5 st6">experiment_1_nanopolish</text>
		</g>
		<g class="st17">
			<text transform="matrix(1 0 0 1 56.7627 372.1733)" class="st4 st5 st6">experiment_2_medaka</text>
		</g>
		<g class="st17">
			<text transform="matrix(1 0 0 1 56.7627 414.9429)" class="st4 st5 st6">experiment_2_nanopolish</text>
		</g>
		<g class="st17">
			<text transform="matrix(1 0 0 1 116.0757 469.7183)" class="st10 st5 st6"> </text>
		</g>
		<rect x="307.4" y="278.4" class="st15" width="241.6" height="74.3"/>
		<rect x="307.4" y="351.9" class="st16" width="241.6" height="0.8"/>
		<rect x="307.4" y="309.1" class="st16" width="0.8" height="43.5"/>
		<rect x="548.2" y="309.1" class="st16" width="0.8" height="43.5"/>
		<rect x="307.4" y="278.4" class="st16" width="241.6" height="0.8"/>
		<rect x="307.4" y="309.1" class="st16" width="241.6" height="0.8"/>
		<rect x="307.4" y="278.4" class="st16" width="0.8" height="31.5"/>
		<rect x="548.2" y="278.4" class="st16" width="0.8" height="31.5"/>
		<g class="st17">
			<text transform="matrix(1 0 0 1 316.7588 298.6392)" class="st7 st18 st6">Complet</text>
		</g>
		<g class="st17">
			<text transform="matrix(1 0 0 1 364.5645 298.6392)" class="st7 st18 st6">ed Jobs</text>
		</g>
		<g class="st17">
			<text transform="matrix(1 0 0 1 316.7588 329.4028)" class="st4 st5 st6">experiment_1_medaka</text>
		</g>
	</g>
	<g class="st0">
		<defs>
			<rect id="SVGID_19_" x="29" y="-18" width="538" height="784.9"/>
		</defs>
		<clipPath id="SVGID_20_">
			<use xlink:href="#SVGID_19_"  style="overflow:visible;"/>
		</clipPath>
		<g class="st19">
			<defs>
				<path id="SVGID_21_" d="M223.3,342.9v-24c0-0.8,0.3-1.5,0.9-2.1s1.3-0.9,2.1-0.9h49.5c0.8,0,1.5,0.3,2.1,0.9
					c0.6,0.6,0.9,1.3,0.9,2.1v24c0,0.8-0.3,1.5-0.9,2.1c-0.6,0.6-1.3,0.9-2.1,0.9h-49.5c-0.8,0-1.5-0.3-2.1-0.9
					C223.6,344.4,223.3,343.7,223.3,342.9z"/>
			</defs>
			<clipPath id="SVGID_22_">
				<use xlink:href="#SVGID_21_"  style="overflow:visible;"/>
			</clipPath>
			<rect x="223.3" y="315.9" class="st20" width="55.5" height="30"/>
		</g>
	</g>
	<g class="st0">
		<defs>
			<rect id="SVGID_23_" x="29" y="-18" width="538" height="784.9"/>
		</defs>
		<clipPath id="SVGID_24_">
			<use xlink:href="#SVGID_23_"  style="overflow:visible;"/>
		</clipPath>
		<g class="st21">
			<text transform="matrix(1 0 0 1 236.0259 335.4058)" class="st22 st5 st6">Abort</text>
		</g>
	</g>
	<g class="st0">
		<defs>
			<rect id="SVGID_25_" x="29" y="-18" width="538" height="784.9"/>
		</defs>
		<clipPath id="SVGID_26_">
			<use xlink:href="#SVGID_25_"  style="overflow:visible;"/>
		</clipPath>
		<g class="st23">
			<defs>
				<path id="SVGID_27_" d="M223.3,385.7v-24c0-0.8,0.3-1.5,0.9-2.1c0.6-0.6,1.3-0.9,2.1-0.9h49.5c0.8,0,1.5,0.3,2.1,0.9
					c0.6,0.6,0.9,1.3,0.9,2.1v24c0,0.8-0.3,1.5-0.9,2.1c-0.6,0.6-1.3,0.9-2.1,0.9h-49.5c-0.8,0-1.5-0.3-2.1-0.9
					C223.6,387.2,223.3,386.5,223.3,385.7z"/>
			</defs>
			<clipPath id="SVGID_28_">
				<use xlink:href="#SVGID_27_"  style="overflow:visible;"/>
			</clipPath>
			<rect x="223.3" y="358.7" class="st24" width="55.5" height="30"/>
		</g>
	</g>
	<g class="st0">
		<defs>
			<rect id="SVGID_29_" x="29" y="-18" width="538" height="784.9"/>
		</defs>
		<clipPath id="SVGID_30_">
			<use xlink:href="#SVGID_29_"  style="overflow:visible;"/>
		</clipPath>
		<g class="st25">
			<text transform="matrix(1 0 0 1 236.0259 378.1753)" class="st22 st5 st6">Abort</text>
		</g>
	</g>
	<g class="st0">
		<defs>
			<rect id="SVGID_31_" x="29" y="-18" width="538" height="784.9"/>
		</defs>
		<clipPath id="SVGID_32_">
			<use xlink:href="#SVGID_31_"  style="overflow:visible;"/>
		</clipPath>
		<g class="st26">
			<defs>
				<path id="SVGID_33_" d="M223.3,428.4v-24c0-0.8,0.3-1.5,0.9-2.1c0.6-0.6,1.3-0.9,2.1-0.9h49.5c0.8,0,1.5,0.3,2.1,0.9
					c0.6,0.6,0.9,1.3,0.9,2.1v24c0,0.8-0.3,1.5-0.9,2.1c-0.6,0.6-1.3,0.9-2.1,0.9h-49.5c-0.8,0-1.5-0.3-2.1-0.9
					C223.6,430,223.3,429.3,223.3,428.4z"/>
			</defs>
			<clipPath id="SVGID_34_">
				<use xlink:href="#SVGID_33_"  style="overflow:visible;"/>
			</clipPath>
			<rect x="223.3" y="401.4" class="st27" width="55.5" height="30"/>
		</g>
	</g>
	<g class="st0">
		<defs>
			<rect id="SVGID_35_" x="29" y="-18" width="538" height="784.9"/>
		</defs>
		<clipPath id="SVGID_36_">
			<use xlink:href="#SVGID_35_"  style="overflow:visible;"/>
		</clipPath>
		<g class="st28">
			<text transform="matrix(1 0 0 1 236.0259 420.9458)" class="st22 st5 st6">Abort</text>
		</g>
		<path class="st29" d="M47.4,483.2v-24c0-0.3,0.1-0.7,0.2-1c0.1-0.3,0.3-0.6,0.6-0.9c0.2-0.2,0.5-0.4,0.9-0.6
			c0.3-0.1,0.7-0.2,1-0.2h63c0.3,0,0.7,0.1,1,0.2c0.3,0.1,0.6,0.3,0.9,0.6c0.2,0.2,0.4,0.5,0.6,0.9c0.1,0.3,0.2,0.7,0.2,1v24
			c0,0.3-0.1,0.7-0.2,1c-0.1,0.3-0.3,0.6-0.6,0.9c-0.2,0.2-0.5,0.4-0.9,0.6c-0.3,0.1-0.7,0.2-1,0.2H50c-0.3,0-0.7-0.1-1-0.2
			c-0.3-0.1-0.6-0.3-0.9-0.6c-0.2-0.2-0.4-0.5-0.6-0.9C47.5,483.9,47.4,483.6,47.4,483.2z"/>
		<path class="st30" d="M47.4,483.2v-24c0-0.3,0.1-0.7,0.2-1c0.1-0.3,0.3-0.6,0.6-0.9c0.2-0.2,0.5-0.4,0.9-0.6
			c0.3-0.1,0.7-0.2,1-0.2h63c0.3,0,0.7,0.1,1,0.2c0.3,0.1,0.6,0.3,0.9,0.6c0.2,0.2,0.4,0.5,0.6,0.9c0.1,0.3,0.2,0.7,0.2,1v24
			c0,0.3-0.1,0.7-0.2,1c-0.1,0.3-0.3,0.6-0.6,0.9c-0.2,0.2-0.5,0.4-0.9,0.6c-0.3,0.1-0.7,0.2-1,0.2H50c-0.3,0-0.7-0.1-1-0.2
			c-0.3-0.1-0.6-0.3-0.9-0.6c-0.2-0.2-0.4-0.5-0.6-0.9C47.5,483.9,47.4,483.6,47.4,483.2z"/>
	</g>
	<g class="st0">
		<defs>
			<rect id="SVGID_37_" x="29" y="-18" width="538" height="784.9"/>
		</defs>
		<clipPath id="SVGID_38_">
			<use xlink:href="#SVGID_37_"  style="overflow:visible;"/>
		</clipPath>
		<g class="st31">
			<defs>
				<path id="SVGID_39_" d="M47.8,483.2v-24c0-0.6,0.2-1.2,0.7-1.6c0.4-0.4,1-0.7,1.6-0.7h63c0.6,0,1.2,0.2,1.6,0.7
					c0.4,0.4,0.7,1,0.7,1.6v24c0,0.6-0.2,1.2-0.7,1.6c-0.4,0.4-1,0.7-1.6,0.7H50c-0.6,0-1.2-0.2-1.6-0.7
					C48,484.4,47.8,483.8,47.8,483.2z"/>
			</defs>
			<clipPath id="SVGID_40_">
				<use xlink:href="#SVGID_39_"  style="overflow:visible;"/>
			</clipPath>
			<g class="st32">
				<text transform="matrix(1 0 0 1 59.7642 475.7212)" class="st7 st5 st6">Add Job</text>
			</g>
		</g>
	</g>
	<g class="st0">
		<defs>
			<rect id="SVGID_41_" x="29" y="-18" width="538" height="784.9"/>
		</defs>
		<clipPath id="SVGID_42_">
			<use xlink:href="#SVGID_41_"  style="overflow:visible;"/>
		</clipPath>
		<g class="st33">
			<defs>
				<path id="SVGID_43_" d="M479.2,342.9v-24c0-0.8,0.3-1.5,0.9-2.1c0.6-0.6,1.3-0.9,2.1-0.9h54c0.8,0,1.5,0.3,2.1,0.9
					c0.6,0.6,0.9,1.3,0.9,2.1v24c0,0.8-0.3,1.5-0.9,2.1c-0.6,0.6-1.3,0.9-2.1,0.9h-54c-0.8,0-1.5-0.3-2.1-0.9
					C479.5,344.4,479.2,343.7,479.2,342.9z"/>
			</defs>
			<clipPath id="SVGID_44_">
				<use xlink:href="#SVGID_43_"  style="overflow:visible;"/>
			</clipPath>
			<rect x="479.2" y="315.9" class="st34" width="60" height="30"/>
		</g>
	</g>
	<g class="st0">
		<defs>
			<rect id="SVGID_45_" x="29" y="-18" width="538" height="784.9"/>
		</defs>
		<clipPath id="SVGID_46_">
			<use xlink:href="#SVGID_45_"  style="overflow:visible;"/>
		</clipPath>
		<g class="st35">
			<text transform="matrix(1 0 0 1 491.8711 335.4058)" class="st22 st5 st6">Delete</text>
		</g>
	</g>
</g>
</svg>
